<?xml version="1.0" standalone="no"?>
<!DOCTYPE svg PUBLIC "-//W3C//DTD SVG 20010904//EN"
 "http://www.w3.org/TR/2001/REC-SVG-20010904/DTD/svg10.dtd">
<svg version="1.0" xmlns="http://www.w3.org/2000/svg"
 width="352.000000pt" height="352.000000pt" viewBox="0 0 352.000000 352.000000"
 preserveAspectRatio="xMidYMid meet">
<metadata>
Created by potrace 1.11, written by Peter Selinger 2001-2013
</metadata>
<g transform="translate(0.000000,352.000000) scale(0.100000,-0.100000)"
fill="#000000" stroke="none">
<path d="M1730 3024 c-16 -7 -43 -15 -61 -18 -17 -2 -41 -14 -53 -25 -11 -11
-34 -23 -49 -26 -23 -6 -58 -49 -57 -70 1 -21 -2 -25 -18 -25 -10 0 -33 -11
-52 -25 -19 -14 -30 -25 -25 -25 5 0 -8 -12 -29 -26 -27 -19 -36 -31 -33 -45
3 -10 1 -22 -4 -25 -6 -3 -7 -14 -4 -25 4 -10 2 -19 -3 -19 -6 0 -13 -11 -16
-25 -6 -22 -12 -27 -32 -24 -14 2 -22 -25 -14 -47 7 -16 3 -30 -16 -55 -13
-18 -22 -39 -20 -46 7 -16 -22 -84 -41 -98 -8 -6 -15 -17 -16 -25 -2 -8 -6
-21 -10 -27 -5 -7 -5 -17 -2 -23 3 -5 -6 -25 -20 -44 -15 -19 -28 -43 -30 -53
-2 -10 -4 -18 -5 -18 -2 0 -7 -20 -15 -60 -3 -16 -9 -33 -13 -37 -10 -10 -72
22 -69 36 1 7 -12 10 -37 9 -22 0 -44 4 -50 11 -17 19 -36 49 -42 69 -4 9 -18
20 -31 23 -16 4 -21 9 -13 14 9 5 9 13 1 27 -5 11 -7 24 -3 28 4 4 -4 2 -16
-4 -25 -13 -46 -6 -23 8 16 10 4 34 -13 28 -17 -7 -62 31 -80 67 -16 31 -11
60 8 49 6 -4 5 1 -3 10 -7 9 -10 17 -7 17 4 0 2 6 -4 13 -6 6 -18 21 -28 33
-15 18 -42 30 -92 40 -19 4 -62 -31 -79 -64 -13 -24 -7 -62 10 -62 5 0 9 -6 9
-14 0 -7 18 -34 40 -59 22 -25 40 -52 40 -61 0 -17 33 -39 44 -29 3 3 9 -8 12
-24 3 -18 16 -36 29 -43 13 -7 21 -18 18 -26 -3 -8 1 -14 10 -14 9 0 18 -9 22
-20 4 -12 19 -22 39 -25 30 -6 32 -9 30 -45 -2 -35 0 -38 22 -35 13 1 24 -2
24 -7 0 -5 4 -7 8 -4 10 6 82 -67 82 -83 0 -6 11 -16 25 -21 26 -10 30 -39 7
-62 -7 -7 -12 -20 -12 -30 0 -10 -5 -15 -13 -13 -9 4 -12 -10 -11 -50 1 -38
-2 -55 -11 -55 -7 0 -18 -7 -25 -15 -7 -8 -8 -15 -3 -15 13 0 13 -33 0 -41 -5
-4 -5 -15 3 -29 10 -18 9 -24 -7 -36 -10 -7 -13 -14 -7 -14 12 0 15 -70 4 -70
-3 0 -6 -10 -7 -21 -1 -12 -12 -28 -23 -36 -16 -11 -20 -22 -15 -40 4 -17 0
-29 -14 -41 -11 -9 -27 -36 -35 -60 -13 -41 -13 -42 5 -37 10 4 19 2 19 -3 0
-15 -36 -43 -45 -35 -4 5 -5 2 -1 -5 4 -7 12 -10 17 -7 20 13 7 -20 -18 -47
-32 -34 -36 -47 -36 -115 0 -29 -5 -53 -10 -53 -5 0 -6 -10 -3 -23 4 -12 9
-30 11 -40 2 -9 7 -22 10 -27 3 -6 -1 -10 -9 -10 -10 0 -13 -6 -9 -17 4 -11 3
-14 -6 -9 -9 6 -10 1 -5 -18 4 -15 2 -26 -4 -26 -6 0 -10 -24 -8 -60 2 -52 -1
-61 -17 -66 -11 -3 -16 -9 -11 -13 14 -9 15 -31 3 -31 -8 0 -8 -4 1 -15 14
-17 21 -113 8 -121 -12 -8 10 -44 65 -107 43 -50 51 -55 80 -50 41 6 43 9 23
28 -9 9 -16 13 -16 9 0 -4 -9 1 -20 11 -26 23 -28 114 -4 150 10 15 12 25 5
25 -6 0 -11 7 -11 15 0 8 5 15 11 15 5 0 7 4 4 10 -19 31 -1 193 25 225 5 6 7
20 6 30 -2 11 1 26 7 34 13 16 18 36 19 76 0 17 2 37 6 45 3 8 6 17 7 20 1 3
8 19 15 35 7 17 12 36 11 44 -1 7 2 10 8 6 7 -3 8 0 5 10 -7 18 14 75 28 75 5
0 7 4 3 9 -3 5 -1 12 5 16 5 3 10 15 10 25 0 10 7 26 16 34 8 9 13 16 9 16 -3
0 3 13 14 29 25 35 45 85 31 76 -19 -12 -10 18 20 62 17 24 30 55 30 68 0 24
23 55 41 55 5 0 8 6 6 12 -1 7 7 14 18 16 22 3 100 -67 110 -99 4 -11 11 -19
16 -19 5 0 9 -6 9 -13 0 -7 29 -42 64 -78 58 -60 63 -69 60 -102 -3 -28 0 -39
17 -51 12 -8 19 -18 16 -23 -9 -14 24 -72 44 -78 15 -5 17 -10 9 -26 -8 -15
-7 -21 4 -25 9 -3 26 -22 38 -42 31 -51 79 -102 95 -102 7 0 13 -4 13 -10 0
-5 4 -10 9 -10 5 0 8 11 5 24 -2 14 0 27 5 31 6 3 7 15 5 28 -3 12 -7 40 -8
62 -1 22 -6 47 -11 54 -4 8 -10 30 -12 49 -4 34 -15 58 -53 117 -11 17 -25 40
-31 53 -7 12 -16 22 -20 22 -4 0 -6 11 -5 25 2 13 0 23 -5 22 -7 -2 -99 91
-99 100 0 11 -109 165 -152 216 -42 48 -50 65 -53 104 -2 25 -8 49 -12 52 -12
9 -14 31 -4 31 6 0 8 9 6 20 -2 11 -1 20 3 20 4 0 9 14 10 30 1 17 18 54 38
83 19 28 34 54 32 57 -1 3 5 16 14 29 12 17 14 30 8 46 -7 18 -4 27 12 41 27
25 51 72 55 108 2 16 9 37 17 45 7 9 16 28 19 42 4 14 18 31 32 39 18 10 22
17 14 26 -8 9 -5 16 10 24 12 6 21 19 21 30 0 10 4 21 9 24 7 5 19 42 34 106
1 5 13 21 35 45 7 8 11 15 7 15 -10 0 29 37 47 43 9 3 18 16 20 29 2 17 14 26
46 37 29 9 46 21 52 36 5 13 15 27 23 32 15 8 20 24 18 54 -1 18 -40 20 -81 3z
m-890 -744 c0 -5 -5 -10 -11 -10 -5 0 -7 5 -4 10 3 6 8 10 11 10 2 0 4 -4 4
-10z"/>
<path d="M2267 2922 c-33 -10 -65 -32 -103 -70 -29 -30 -54 -53 -55 -51 0 2
-2 12 -4 21 -4 24 -27 46 -43 40 -6 -2 -12 1 -12 6 0 5 -27 8 -62 6 -85 -5
-88 -6 -88 -16 0 -5 -4 -7 -9 -3 -5 3 -12 1 -16 -5 -4 -6 -10 -8 -15 -5 -4 3
-11 -2 -14 -11 -3 -8 -10 -13 -15 -10 -5 3 -12 -4 -16 -17 -3 -12 -9 -17 -11
-10 -3 7 -12 9 -20 6 -10 -4 -12 -8 -5 -12 6 -4 -2 -19 -19 -38 -17 -18 -30
-38 -30 -46 0 -7 -3 -17 -7 -20 -14 -15 -11 -60 5 -76 18 -19 62 -38 102 -45
35 -6 60 -17 60 -26 0 -4 8 -7 18 -6 48 2 123 -54 114 -86 -1 -5 5 -8 13 -8
25 0 47 -44 36 -72 -5 -14 -8 -34 -6 -44 2 -11 4 -24 4 -31 1 -6 9 -10 19 -9
12 2 17 13 18 34 1 18 3 35 4 40 1 4 2 11 1 15 -2 14 51 77 60 71 5 -3 20 6
33 20 13 14 29 26 36 26 7 0 10 3 7 6 -9 10 12 46 24 39 5 -4 9 -1 9 5 0 7 6
8 19 1 21 -12 32 -5 24 15 -3 8 0 15 6 15 6 1 16 3 21 4 6 1 15 3 21 4 6 0 8
10 4 22 -5 13 -3 19 3 15 14 -9 28 15 27 47 0 15 3 27 9 27 5 0 7 3 4 6 -4 3
0 17 7 31 9 16 11 33 5 42 -4 9 -8 18 -7 21 0 3 -5 28 -12 57 -20 84 -57 103
-144 75z"/>
<path d="M2634 2649 c-3 -5 -10 -7 -15 -4 -5 4 -9 2 -9 -4 0 -6 -7 -8 -15 -5
-9 4 -15 1 -15 -7 0 -22 -44 -66 -62 -63 -20 3 -25 -22 -6 -28 8 -3 4 -12 -10
-26 -12 -12 -19 -22 -16 -22 3 0 -1 -7 -10 -15 -8 -9 -19 -14 -23 -13 -4 1
-32 -22 -62 -52 -32 -33 -55 -50 -58 -42 -3 6 -9 12 -14 12 -12 0 -74 -121
-74 -147 -1 -11 -6 -27 -12 -35 -6 -7 -22 -40 -34 -73 -12 -33 -33 -76 -45
-95 -15 -22 -22 -46 -20 -65 4 -33 -16 -89 -40 -117 -9 -9 -14 -21 -11 -25 3
-5 2 -15 -3 -23 -5 -8 -5 -21 1 -31 6 -12 5 -20 -1 -24 -6 -4 -8 -10 -6 -14 3
-4 -10 -20 -28 -35 -20 -15 -33 -34 -31 -44 1 -9 -3 -23 -9 -31 -9 -12 -8 -13
4 -7 8 4 6 0 -4 -8 -11 -9 -15 -16 -8 -16 12 0 8 -35 -6 -54 -5 -6 -8 -21 -7
-34 1 -13 -2 -25 -7 -28 -4 -3 -6 -9 -3 -14 3 -5 -3 -26 -15 -47 -18 -33 -18
-39 -5 -60 8 -12 11 -24 7 -27 -5 -3 -7 -23 -6 -45 1 -27 -3 -42 -13 -46 -8
-3 -13 -11 -10 -19 8 -20 -3 -27 -24 -15 -12 6 -19 6 -19 0 0 -5 5 -11 11 -13
6 -2 12 -18 12 -36 1 -18 5 -32 8 -32 19 0 14 -30 -8 -54 -14 -15 -22 -30 -18
-34 4 -4 12 1 19 11 7 9 16 17 19 17 7 0 3 -28 -6 -36 -4 -4 0 -18 9 -32 13
-19 14 -30 5 -49 -14 -31 -14 -33 2 -27 10 3 13 -5 12 -31 -2 -32 4 -40 28
-36 9 1 5 -22 -7 -30 -4 -4 7 -24 27 -45 19 -22 33 -47 31 -57 -1 -9 1 -15 4
-13 13 7 47 -11 47 -25 0 -7 16 -17 36 -22 30 -7 35 -12 32 -30 -3 -14 3 -26
16 -34 16 -10 23 -8 44 13 14 14 31 22 40 18 8 -3 29 1 45 10 16 8 32 13 35
10 3 -3 8 4 12 15 3 12 11 19 16 16 5 -4 9 -1 9 4 0 6 9 11 20 11 12 0 20 -7
20 -17 0 -13 5 -11 17 9 14 22 59 51 83 53 22 2 65 37 108 90 5 6 17 31 26 57
10 26 26 55 35 65 9 10 24 34 33 54 10 19 28 40 42 47 15 6 27 23 31 42 4 16
21 46 40 65 18 19 29 35 24 35 -5 0 -6 7 -2 16 4 11 8 12 13 4 5 -8 10 -7 19
4 7 8 8 17 3 20 -21 13 5 85 35 97 19 7 22 13 15 26 -13 26 -4 71 18 96 11 11
20 29 20 38 0 10 5 21 10 24 6 4 8 11 5 16 -4 5 -1 9 5 9 6 0 9 3 6 8 -2 4 3
23 11 42 9 19 17 41 19 49 1 7 7 18 13 24 6 6 11 18 11 27 -1 12 -4 11 -15 -4
-17 -23 -20 -4 -4 26 8 14 8 23 0 27 -10 7 -12 51 -1 51 10 0 1 83 -10 94 -13
13 -13 29 1 20 8 -4 8 -1 1 12 -5 11 -11 35 -13 54 -2 19 -8 38 -12 41 -5 4
-4 16 2 28 7 11 8 21 4 21 -5 0 -15 21 -22 46 -8 26 -23 52 -37 61 -22 14 -22
16 -7 39 13 21 13 24 0 24 -11 0 -14 8 -10 35 3 26 0 37 -11 41 -9 3 -16 16
-16 29 0 12 -7 28 -15 35 -8 7 -15 26 -15 42 0 17 -4 27 -10 23 -10 -6 -14 6
-11 38 1 9 -5 24 -13 33 -9 9 -14 20 -11 25 4 5 2 9 -3 9 -4 0 -19 18 -31 40
-12 22 -34 48 -47 57 -28 18 -101 26 -110 12z m6 -248 c0 -5 7 -16 15 -25 13
-12 13 -19 3 -35 -17 -28 -1 -40 18 -13 16 23 41 32 27 10 -4 -7 -8 -17 -9
-23 -1 -5 -5 -18 -10 -29 -6 -16 -5 -17 14 -7 26 14 26 11 8 -34 -14 -33 -13
-39 6 -36 5 0 7 -2 5 -7 -1 -4 2 -8 6 -9 18 -4 48 -48 44 -65 -3 -11 2 -20 15
-24 15 -4 17 -8 8 -14 -10 -6 -10 -15 -1 -41 8 -23 8 -35 1 -37 -14 -5 -13
-21 3 -36 9 -9 12 -45 11 -122 -2 -119 -4 -136 -29 -184 -9 -18 -12 -29 -6
-26 16 10 13 -16 -4 -37 -7 -11 -11 -25 -8 -33 3 -10 0 -12 -10 -9 -16 7 -33
-25 -19 -34 18 -12 -2 -96 -20 -85 -6 4 -6 -2 1 -15 7 -12 8 -21 2 -21 -13 0
-70 -100 -74 -131 -3 -15 -12 -25 -25 -27 -23 -4 -29 -21 -12 -38 7 -7 4 -17
-9 -30 -10 -12 -18 -32 -17 -45 1 -17 -4 -24 -16 -23 -10 1 -18 -2 -18 -8 0
-5 -4 -7 -8 -4 -4 3 -7 -8 -6 -25 1 -16 -2 -29 -6 -29 -4 0 -15 -17 -23 -38
-19 -44 -148 -165 -180 -168 -12 -1 -31 3 -41 8 -14 8 -21 6 -28 -6 -8 -14
-12 -14 -38 6 -23 17 -28 26 -23 48 4 21 -2 36 -27 64 -30 33 -31 38 -18 59
16 26 16 33 -2 69 -10 22 -10 31 -1 42 8 10 9 21 3 33 -9 17 -8 66 2 173 8 79
15 110 30 131 9 13 12 34 9 53 -6 41 24 79 51 64 16 -9 18 -8 13 4 -3 9 -1 20
4 25 6 6 4 14 -6 23 -21 17 -19 30 5 25 18 -3 19 -1 8 18 -6 12 -18 27 -25 32
-12 9 -10 15 11 38 14 16 26 37 26 48 0 10 7 19 15 19 8 0 15 3 16 8 6 76 23
132 40 132 5 0 9 9 9 19 0 11 5 23 10 26 6 3 8 16 5 28 -5 18 2 26 31 42 38
20 40 25 44 107 1 9 8 19 17 22 9 4 13 13 9 22 -9 24 11 53 34 49 15 -3 24 3
31 21 5 14 7 30 3 35 -10 17 7 51 23 44 10 -3 22 3 30 15 14 20 53 28 53 11z"/>
</g>
</svg>
