<?xml version="1.0" encoding="utf-8"?>
<!-- Generator: Adobe Illustrator 16.0.0, SVG Export Plug-In . SVG Version: 6.00 Build 0)  -->
<!DOCTYPE svg PUBLIC "-//W3C//DTD SVG 1.1//EN" "http://www.w3.org/Graphics/SVG/1.1/DTD/svg11.dtd">
<svg version="1.1" id="Layer_1" xmlns="http://www.w3.org/2000/svg" xmlns:xlink="http://www.w3.org/1999/xlink" x="0px" y="0px"
	 width="459px" height="599px" viewBox="0 0 459 599" enable-background="new 0 0 459 599" xml:space="preserve">
<text transform="matrix(1 0 0 1 0 29.2002)" fill="#FFFFFF" font-family="'ArialMT'" font-size="36">1. Real Life</text>
<text transform="matrix(1 0 0 1 0 72.4004)" fill="#FFFFFF" font-family="'ArialMT'" font-size="36">2. Losers (Ft. Labrinth)</text>
<text transform="matrix(1 0 0 1 0 115.6006)" fill="#FFFFFF" font-family="'ArialMT'" font-size="36">3. Tell Your Friends</text>
<text transform="matrix(1 0 0 1 0 158.7998)" fill="#FFFFFF" font-family="'ArialMT'" font-size="36">4. Often</text>
<text transform="matrix(1 0 0 1 0 202)" fill="#FFFFFF" font-family="'ArialMT'" font-size="36">5. The Hills</text>
<text transform="matrix(1 0 0 1 0 245.2002)" fill="#FFFFFF" font-family="'ArialMT'" font-size="36">6. Acquainted</text>
<text transform="matrix(1 0 0 1 0 288.4004)" fill="#FFFFFF" font-family="'ArialMT'" font-size="36">7. Can&apos;t Feel My Face</text>
<text transform="matrix(1 0 0 1 0 331.6006)" fill="#FFFFFF" font-family="'ArialMT'" font-size="36">8. Shameless</text>
<text transform="matrix(1 0 0 1 0 374.7998)" fill="#FFFFFF" font-family="'ArialMT'" font-size="36">9. Earned It</text>
<text transform="matrix(1 0 0 1 0 418)" fill="#FFFFFF" font-family="'ArialMT'" font-size="36">10. In The Night</text>
<text transform="matrix(1 0 0 1 0 461.2002)" fill="#FFFFFF" font-family="'ArialMT'" font-size="36">11. As You Are</text>
<text transform="matrix(1 0 0 1 0 504.4004)" fill="#FFFFFF" font-family="'ArialMT'" font-size="36">12. Dark Times (Ft. Ed Sheeran)</text>
<text transform="matrix(1 0 0 1 0 547.5996)" fill="#FFFFFF" font-family="'ArialMT'" font-size="36">13. Prisoner (Ft. Lana Del Rey)</text>
<text transform="matrix(1 0 0 1 0 590.7998)" fill="#FFFFFF" font-family="'ArialMT'" font-size="36">14. Angel</text>
</svg>
