<?xml version="1.0" encoding="utf-8"?>
<!-- Generator: Adobe Illustrator 16.0.0, SVG Export Plug-In . SVG Version: 6.00 Build 0)  -->
<!DOCTYPE svg PUBLIC "-//W3C//DTD SVG 1.1//EN" "http://www.w3.org/Graphics/SVG/1.1/DTD/svg11.dtd">
<svg version="1.1" id="Layer_1" xmlns="http://www.w3.org/2000/svg" xmlns:xlink="http://www.w3.org/1999/xlink" x="0px" y="0px"
	 width="341px" height="422px" viewBox="0 0 341 422" enable-background="new 0 0 341 422" xml:space="preserve">
<text transform="matrix(1 0 0 1 0 29.2002)" fill="#FFFFFF" font-family="'ArialMT'" font-size="36">1. Professional</text>
<text transform="matrix(1 0 0 1 0 72.4004)" fill="#FFFFFF" font-family="'ArialMT'" font-size="36">2. The Town</text>
<text transform="matrix(1 0 0 1 0 115.6006)" fill="#FFFFFF" font-family="'ArialMT'" font-size="36">3. Adaptation</text>
<text transform="matrix(1 0 0 1 0 158.7998)" fill="#FFFFFF" font-family="'ArialMT'" font-size="36">4. Love In The Sky</text>
<text transform="matrix(1 0 0 1 0 202)" fill="#FFFFFF" font-family="'ArialMT'" font-size="36">5. Belong To The World</text>
<text transform="matrix(1 0 0 1 0 245.2002)" fill="#FFFFFF" font-family="'ArialMT'" font-size="36">6. Live For</text>
<text transform="matrix(1 0 0 1 0 288.4004)" fill="#FFFFFF" font-family="'ArialMT'" font-size="36">7. Wanderlust</text>
<text transform="matrix(1 0 0 1 0 331.6006)" fill="#FFFFFF" font-family="'ArialMT'" font-size="36">8. Kiss Land</text>
<text transform="matrix(1 0 0 1 0 374.7998)" fill="#FFFFFF" font-family="'ArialMT'" font-size="36">9. Pretty</text>
<text transform="matrix(1 0 0 1 0 418)" fill="#FFFFFF" font-family="'ArialMT'" font-size="36">10. Tears In The Rain</text>
</svg>
