<?xml version="1.0" encoding="utf-8"?>
<!-- Generator: Adobe Illustrator 16.0.0, SVG Export Plug-In . SVG Version: 6.00 Build 0)  -->
<!DOCTYPE svg PUBLIC "-//W3C//DTD SVG 1.1//EN" "http://www.w3.org/Graphics/SVG/1.1/DTD/svg11.dtd">
<svg version="1.1" id="Layer_1" xmlns="http://www.w3.org/2000/svg" xmlns:xlink="http://www.w3.org/1999/xlink" x="0px" y="0px"
	 width="530px" height="783px" viewBox="0 0 530 783" enable-background="new 0 0 530 783" xml:space="preserve">
<text transform="matrix(1 0 0 1 5 37)" fill="#FFFFFF" font-family="'ArialMT'" font-size="36">1. Starboy ft. Daft Punk</text>
<text transform="matrix(1 0 0 1 5 80.2002)" fill="#FFFFFF" font-family="'ArialMT'" font-size="36">2. Party Monster</text>
<text transform="matrix(1 0 0 1 5 123.4004)" fill="#FFFFFF" font-family="'ArialMT'" font-size="36">3. False Alarm</text>
<text transform="matrix(1 0 0 1 5 166.5996)" fill="#FFFFFF" font-family="'ArialMT'" font-size="36">4. Reminder</text>
<text transform="matrix(1 0 0 1 5 209.7998)" fill="#FFFFFF" font-family="'ArialMT'" font-size="36">5. Rockin&apos;</text>
<text transform="matrix(1 0 0 1 5 253)" fill="#FFFFFF" font-family="'ArialMT'" font-size="36">6. Secrets</text>
<text transform="matrix(1 0 0 1 5 296.2002)" fill="#FFFFFF" font-family="'ArialMT'" font-size="36">7. True Colors</text>
<text transform="matrix(1 0 0 1 5 339.4004)" fill="#FFFFFF" font-family="'ArialMT'" font-size="36">8. Stargirl Interlude ft. Lana Del Rey</text>
<text transform="matrix(1 0 0 1 5 382.5996)" fill="#FFFFFF" font-family="'ArialMT'" font-size="36">9. Sidewalks ft. Kendrick Lamar</text>
<text transform="matrix(1 0 0 1 5 425.7998)" fill="#FFFFFF" font-family="'ArialMT'" font-size="36">10. Six Feet Under ft. Future</text>
<text transform="matrix(1 0 0 1 5 469)" fill="#FFFFFF" font-family="'ArialMT'" font-size="36">11. Love to Lay</text>
<text transform="matrix(1 0 0 1 5 512.2002)" fill="#FFFFFF" font-family="'ArialMT'" font-size="36">12. A Lonely Night</text>
<text transform="matrix(1 0 0 1 5 555.4004)" fill="#FFFFFF" font-family="'ArialMT'" font-size="36">13. Attention</text>
<text transform="matrix(1 0 0 1 5 598.5996)" fill="#FFFFFF" font-family="'ArialMT'" font-size="36">14. Ordinary Life</text>
<text transform="matrix(1 0 0 1 5 641.7998)" fill="#FFFFFF" font-family="'ArialMT'" font-size="36">15. Nothing Without You</text>
<text transform="matrix(1 0 0 1 5 685)" fill="#FFFFFF" font-family="'ArialMT'" font-size="36">16. All I Know ft. Future</text>
<text transform="matrix(1 0 0 1 5 728.2002)" fill="#FFFFFF" font-family="'ArialMT'" font-size="36">17. Die For You</text>
<text transform="matrix(1 0 0 1 5 771.4004)" fill="#FFFFFF" font-family="'ArialMT'" font-size="36">18. I Feel It Coming ft. Daft Punk</text>
</svg>
